<svg id="Layer_1" data-name="Layer 1" xmlns="http://www.w3.org/2000/svg" viewBox="0 0 611.57 500.52"><defs><style>.cls-1{fill:#fff;}</style></defs><g id="Layer_3" data-name="Layer 3"><path class="cls-1" d="M497.4,564.83c13.11,31.7-3.88,70.69-30.74,70.69H144.93c-26.9,0-43.85-39-30.75-70.69l93.06-225c6.23-15,18-24.37,30.75-24.37H373.57c12.77,0,24.55,9.33,30.78,24.37Z" transform="translate(-0.43 -135)"/><path class="cls-1" d="M157.08,267.79H.43c11.84-58.43,42.45-100.05,78.32-100.05a8.92,8.92,0,0,1,1.37.07c.11-18.14,12.61-32.81,28-32.81H504.33c15.37,0,27.87,14.67,28,32.81a8.92,8.92,0,0,1,1.37-.07c35.87,0,66.48,41.62,78.32,100.05H455.35c3.95-19.43,9.95-37,17.57-51.82H139.51C147.13,230.77,153.13,248.36,157.08,267.79Z" transform="translate(-0.43 -135)"/></g></svg>