
<svg xmlns="http://www.w3.org/2000/svg" version="1.1" xmlns:xlink="http://www.w3.org/1999/xlink" preserveAspectRatio="none" x="0px" y="0px" width="960px" height="640px" viewBox="0 0 960 640">
<defs>
<g id="Symbol_4_0_Layer0_0_FILL">
<path fill="#E7E6E6" stroke="none" d="
M 155.45 49.4
Q 149.3 34.9 138.1 23.7 126.9 12.5 112.4 6.35 97.35 0 80.9 0 64.45 0 49.4 6.35 34.9 12.5 23.7 23.7 12.5 34.9 6.35 49.4 0 64.45 0 80.9 0 97.35 6.35 112.4 12.5 126.9 23.7 138.1 34.9 149.3 49.4 155.45 64.45 161.8 80.9 161.8 97.35 161.8 112.4 155.45 126.9 149.3 138.1 138.1 149.3 126.9 155.45 112.4 161.8 97.35 161.8 80.9 161.8 64.45 155.45 49.4 Z"/>
</g>

<g id="Symbol_3_0_Layer0_0_FILL">
<path fill="#EE78AC" stroke="none" d="
M 197.95 62.95
Q 190.15 44.45 175.85 30.2 161.6 15.9 143.1 8.1 123.95 0 103 0 82.05 0 62.9 8.1 44.4 15.95 30.15 30.2 15.9 44.45 8.1 62.95 0 82.1 0 103.05 0 124 8.1 143.15 15.9 161.65 30.15 175.9 44.4 190.15 62.9 197.95 82.05 206.05 103 206.05 123.95 206.05 143.1 197.95 161.6 190.15 175.85 175.9 190.15 161.65 197.95 143.15 206.05 124 206.05 103.05 206.05 82.1 197.95 62.95 Z"/>
</g>

<g id="Symbol_2_0_Layer0_0_FILL">
<path fill="#7967AB" stroke="none" d="
M 217.75 37.4
Q 200.1 19.7 177.2 10.05 153.5 0 127.55 0 101.6 0 77.9 10.05 55 19.7 37.35 37.4 19.7 55.05 10 77.95 0 101.65 0 127.6 0 153.55 10 177.25 19.7 200.15 37.35 217.8 55 235.45 77.9 245.15 101.6 255.15 127.55 255.15 153.5 255.15 177.2 245.15 200.1 235.45 217.75 217.8 235.45 200.15 245.1 177.25 255.15 153.55 255.15 127.6 255.15 101.65 245.1 77.95 235.45 55.05 217.75 37.4 Z"/>
</g>

<g id="Symbol_1_0_Layer0_0_FILL">
<path fill="#FF9900" stroke="none" d="
M 224.05 17.4
Q 194.75 5 162.7 5 130.6 5 101.3 17.4 73 29.35 51.2 51.2 29.35 73 17.4 101.3 5 130.6 5 162.65 5 194.75 17.4 224.05 29.35 252.35 51.2 274.15 73 296 101.3 307.95 130.6 320.35 162.7 320.35 194.75 320.35 224.05 307.95 252.35 296 274.15 274.15 296 252.35 307.95 224.05 320.35 194.75 320.35 162.65 320.35 130.6 307.95 101.3 296 73 274.15 51.2 252.35 29.35 224.05 17.4 Z"/>
</g>
</defs>

<g transform="matrix( 1, 0, 0, 1, 398.55,174.75) ">
<g transform="matrix( 1, 0, 0, 1, 0,0) ">
<use xlink:href="#Symbol_4_0_Layer0_0_FILL"/>
</g>
</g>

<g transform="matrix( 1, 0, 0, 1, 376.45,152.65) ">
<g transform="matrix( 1, 0, 0, 1, 0,0) ">
<use xlink:href="#Symbol_3_0_Layer0_0_FILL"/>
</g>
</g>

<g transform="matrix( 1, 0, 0, 1, 351.9,128.1) ">
<g transform="matrix( 1, 0, 0, 1, 0,0) ">
<use xlink:href="#Symbol_2_0_Layer0_0_FILL"/>
</g>
</g>

<g transform="matrix( 1, 0, 0, 1, 321.8,98) ">
<g transform="matrix( 1, 0, 0, 1, -5,-5) ">
<use xlink:href="#Symbol_1_0_Layer0_0_FILL"/>
</g>
</g>
</svg>
