<svg id="Layer_1" data-name="Layer 1" xmlns="http://www.w3.org/2000/svg" viewBox="0 0 599.59 409.84"><defs><style>.cls-1{fill:none;}.cls-1,.cls-2{stroke:#fff;stroke-miterlimit:10;stroke-width:26px;}.cls-2{fill:#fff;}</style></defs><g id="Layer_3" data-name="Layer 3"><path class="cls-1" d="M566.91,280.7,305.15,433.3,39.35,280.7l260.89-98.47Z" transform="translate(-9 -168.35)"/><path class="cls-1" d="M455.09,565.19c10.8,0,21.59-8.86,24.17-20.09L509,415.2c4.86-21.19-11.57-34.79-29.11-23.43L324.59,492.34a38.93,38.93,0,0,1-43,0L126.29,391.77c-17.54-11.36-34,2.24-29.11,23.43L127,545.1c2.57,11.23,13.36,20.09,24.17,20.09Z" transform="translate(-9 -168.35)"/><path class="cls-1" d="M548.46,312.88c6.14,5.08,23,20.92,19.29,48.45a76.8,76.8,0,0,1-7.61,23.77" transform="translate(-9 -168.35)"/><polygon class="cls-2" points="581.77 243.88 537.69 245.4 549.99 197.57 566.2 197.01 581.77 243.88"/></g></svg>