
<svg xmlns="http://www.w3.org/2000/svg" version="1.1" xmlns:xlink="http://www.w3.org/1999/xlink" preserveAspectRatio="none" x="0px" y="0px" width="960px" height="640px" viewBox="0 0 960 640">
<defs>
<g id="Symbol_2_0_Layer0_0_MEMBER_0_FILL">
<path fill="#EE79AD" stroke="none" d="
M 271.7 169.2
Q 261.75 174.35 259.35 182.8 256.95 191.25 263.25 198.9 269.6 206.6 281.5 209.3 294.95 212.25 306.95 207.4 319.1 202.45 321.95 192.55 324.75 182.6 316.35 174.45 308.05 166.4 294.15 165.15 281.75 164.05 271.7 169.2 Z"/>
</g>

<g id="Symbol_2_0_Layer0_0_MEMBER_1_FILL">
<path fill="#7A68AC" stroke="none" d="
M 242.4 177.4
Q 236.05 179.4 230.4 185.65 221.35 195.7 219.5 197.25 208.75 206.25 193 208.65 178.25 210.9 161.05 207.1 144.4 203.4 128.35 194.7 112.1 185.9 99.5 173.6 92.05 166 86.75 160.7 76.8 150.7 69 143.9 45.2 123.15 32.9 124.25 31.9 124.35 30 124.75 15.65 128.4 6.5 142.3 -2.65 156.15 0.85 168.9 2.5 174.8 8.15 180.15 11.1 182.95 24.5 193.1 50.25 212.65 65 226.8 70.6 232.2 72.55 233.75 76.1 236.6 81.95 239.7 98.55 248.5 117.7 251.7 130.25 253.75 161.25 255.25 181.3 256.15 188.6 255.85 199.75 255.35 209.4 252.25 218.85 249.15 229.55 241.55 243.4 231.75 257.4 224.9 267.75 219.85 279.8 214.9 286.7 211.65 286.6 207.8 286.5 202.65 282.65 196.35 278.75 190 272.55 184.95 257.4 172.7 242.4 177.4 Z"/>
</g>

<g id="Symbol_2_0_Layer0_0_MEMBER_2_FILL">
<path fill="#E98523" stroke="none" d="
M 334.2 173.8
Q 361.25 168.85 361.15 162.35 361.05 155.8 333.95 151.5 306.8 147.2 268.45 147.7 230.15 148.15 203.05 153.1 176 158.05 176.05 164.6 176.15 171.15 203.3 175.4 230.45 179.7 268.8 179.25 307.2 178.75 334.2 173.8 Z"/>
</g>

<g id="Symbol_2_0_Layer0_0_MEMBER_3_FILL">
<path fill="#F9B03D" stroke="none" d="
M 222.8 151.4
Q 204.55 154.75 204.6 159.15 204.65 163.55 223 166.45 241.35 169.35 267.3 169.05 293.25 168.7 311.5 165.35 329.8 162 329.75 157.6 329.65 153.2 311.3 150.3 293 147.4 267.05 147.7 241.1 148.05 222.8 151.4 Z"/>
</g>

<g id="Symbol_2_0_Layer0_0_MEMBER_4_FILL">
<path fill="#E8E6E6" stroke="none" d="
M 346.85 79.25
Q 346.85 63.15 340.6 48.4 334.6 34.2 323.65 23.2 312.65 12.25 298.45 6.25 283.7 0 267.6 0 251.5 0 236.75 6.25 222.55 12.25 211.55 23.2 200.6 34.2 194.6 48.4 188.35 63.15 188.35 79.25 188.35 95.35 194.6 110.1 200.6 124.3 211.55 135.3 222.55 146.25 236.75 152.25 251.5 158.5 267.6 158.5 283.7 158.5 298.45 152.25 312.65 146.25 323.65 135.3 334.6 124.3 340.6 110.1 346.85 95.35 346.85 79.25 Z"/>
</g>

<g id="Symbol_2_0_Layer0_0_MEMBER_5_FILL">
<path fill="#CECCCC" stroke="none" d="
M 330.2 30.75
Q 333.874609375 37.7337890625 336.15 45.5
L 339.3 66.9
Q 340.2 83.45 332.7 98.05 328.05 113.25 316.35 124.2 305.8 136.15 290.6 141.2 276.2 149.1 259.6 148.55 248.9 148.7 238.5 146 228.1 143.35 218.8 138.05
L 204.55 127.35
Q 214.3 140.2 228.1 148.2 241.5 155.9 256.85 158.05 272.25 160.2 287.2 156.45 302.7 152.55 315.55 142.8 328.45 133.1 336.4 119.25 344.15 105.9 346.3 90.55 348.45 75.15 344.65 60.2 340.75 44.7 331.05 31.8
L 330.2 30.75 Z"/>
</g>

<g id="Symbol_2_0_Layer0_0_MEMBER_6_FILL">
<path fill="#2B2436" stroke="none" d="
M 270.65 64.8
L 257 64.95 257.55 112.5 271.25 112.35 270.65 64.8 Z"/>
</g>

<g id="Symbol_2_0_Layer0_0_MEMBER_7_FILL">
<path fill="#2B2436" stroke="none" d="
M 263.65 43.3
Q 260.4 43.3 258.05 45.6 255.75 47.95 255.75 51.2 255.75 54.5 258.05 56.8 260.4 59.1 263.65 59.1 266.95 59.1 269.3 56.8 271.6 54.5 271.6 51.2 271.6 47.95 269.3 45.6 266.95 43.3 263.65 43.3 Z"/>
</g>

<g id="Symbol_1_0_Layer0_0_FILL">
<path fill="#EE79AD" stroke="none" d="
M 183.85 19.8
Q 175.75 15.75 166.15 14.05 148 10.8 133.3 18.15 117.65 26 109.7 42.35 106.35 49.2 105.7 55.25 105.1 61.35 107.5 64.45 108.05 65.15 109.9 67.5 111.35 69.75 110.7 71.05 110.2 72 107.9 72.5 105.25 73.1 104.2 74.05 102.85 75.3 102.7 77.75 102.6 79.65 103.25 84.25 104.9 95.05 106 99.35 107.55 105.6 110.55 111 112.05 113.7 113.85 116.25 114.55 134.8 112.3 152.9 107.45 191.8 90.3 227.15 99 233.35 108.95 237.2 126.3 243.95 144 242.4 158.85 241.05 171.85 234.25
L 165.35 174.6 175.55 180.55
Q 181.15 182.3 186.9 181.55 193.55 180.65 199 176.85 204.85 172.8 205.35 167.9 205.6 165.85 204.1 162.6 202.75 159.5 203.25 157.1 204.3 152.5 210.1 149 186.85 139.05 187.25 137.9 187.35 137.65 190.65 138.35 195.45 139.35 198.95 139.75 208.95 140.9 218.95 138.75
L 212.6 126.9 230.55 123 213.55 78.65
Q 215.85 65.9 212.1 53.5 209.75 45.75 205 38.65 196.85 26.4 183.85 19.8 Z"/>
</g>

<g id="Symbol_1_0_Layer0_1_FILL">
<path fill="#2B2436" stroke="none" d="
M 230.75 5.5
Q 224.95 0.5 214.5 0.05 207.6 -0.25 190.9 1.8 179.1 3.25 169 6.65 159.65 9.8 151.65 10.5 138.5 11.65 121.8 7.85 115.25 6.35 112 6.3 107.15 6.2 102.75 8.5 95.95 12.05 91.95 20.7 89.35 26.15 85.15 41.5 81.25 55.75 80.45 60.25 78.45 71.5 80.15 81.55 82.1 93.3 90.5 108.8 94.05 115.4 94.85 117.45 96.2 121.1 94.7 122.65 93.2 124.2 88.8 123.5 84.6 122.85 84.2 123.65 83.25 125.65 89 130 95.25 134.75 102.75 136.35 107.5 137.35 110.25 137.35 115.05 137.35 117.25 134.8 119.8 131.9 118.95 126.75 118.15 121.35 114.05 116.25 112.5 107.85 111.85 99.95 111.25 92.4 111.25 88.15 111.3 81.65 112.6 75.6 113.65 70.4 115.2 66.1 117.25 60.4 118.8 60.5 120.6 60.65 121.65 77 122.7 93.4 125.5 93.8 128.85 94.25 133.65 83.7 138.9 72.15 139.5 59.4 139.7 55.05 138.55 44.4 137.9 38.55 140.5 35.75 145.25 30.65 157.75 31.4 164.45 31.75 174.7 34.15 188 37.25 204.05 46.6 210.3 50.2 213.35 51.2 217.9 52.7 222.15 51.5 230 49.25 234.65 39.45 237 34.5 237.9 29.5 238.65 24.3 237.95 19.45 236.7 10.6 230.75 5.5 Z"/>
</g>

<g id="Symbol_1_0_Layer0_2_FILL">
<path fill="#2B2436" stroke="none" d="
M 216 563.85
Q 222.8 554.45 234.2 543.2
L 29.5 534.65 18.75 793.55 0 915.1
Q 65.4 890.7 96.7 852.2 104.3 842.85 108.9 833.7 111.85 827.85 115.85 816.7 120.4 803.95 123.7 796.55 129.65 783.3 138.7 768.7 149.35 751.5 160.25 739 166.25 732.15 176.55 722.45 184.85 714.6 188.1 710 193 703 195.45 692.6 198.1 681.55 197.75 668.2 197.6 662.1 195.9 644.65 194.5 629.95 194.85 620.85 195.4 607.45 199.5 595.6 205.5 578.3 216 563.85 Z"/>
</g>

<g id="Symbol_1_0_Layer0_3_FILL">
<path fill="#7A68AC" stroke="none" d="
M 135 219.2
Q 114.8 216.25 89.4 220 60.85 224.3 36.1 239.6
L 23.15 550.3 245.05 559.55
Q 219.45 505.8 217.1 451.65 216.45 436.1 217.8 420.1 218.2 415.45 220.85 393.5 224.8 360.9 221.1 332.35 217.5 304 213.7 290.25 207.45 267.4 194.75 251.7 172.95 224.7 135 219.2 Z"/>
</g>
</defs>

<g transform="matrix( 0.996185302734375, 0.0871429443359375, -0.0871429443359375, 0.996185302734375, 129.25,104.25) ">
<g transform="matrix( 0.643951416015625, 0, 0, 0.643951416015625, 0.05,0) ">
<use xlink:href="#Symbol_2_0_Layer0_0_MEMBER_0_FILL"/>
</g>

<g transform="matrix( 0.643951416015625, 0, 0, 0.643951416015625, 0.05,0) ">
<use xlink:href="#Symbol_2_0_Layer0_0_MEMBER_1_FILL"/>
</g>

<g transform="matrix( 0.643951416015625, 0, 0, 0.643951416015625, 0.05,0) ">
<use xlink:href="#Symbol_2_0_Layer0_0_MEMBER_2_FILL"/>
</g>

<g transform="matrix( 0.643951416015625, 0, 0, 0.643951416015625, 0.05,0) ">
<use xlink:href="#Symbol_2_0_Layer0_0_MEMBER_3_FILL"/>
</g>

<g transform="matrix( 0.643951416015625, 0, 0, 0.643951416015625, 0.05,0) ">
<use xlink:href="#Symbol_2_0_Layer0_0_MEMBER_4_FILL"/>
</g>

<g transform="matrix( 0.643951416015625, 0, 0, 0.643951416015625, 0.05,0) ">
<use xlink:href="#Symbol_2_0_Layer0_0_MEMBER_5_FILL"/>
</g>

<g transform="matrix( 0.643951416015625, 0, 0, 0.643951416015625, 0.05,0) ">
<use xlink:href="#Symbol_2_0_Layer0_0_MEMBER_6_FILL"/>
</g>

<g transform="matrix( 0.643951416015625, 0, 0, 0.643951416015625, 0.05,0) ">
<use xlink:href="#Symbol_2_0_Layer0_0_MEMBER_7_FILL"/>
</g>
</g>

<g transform="matrix( 1, 0, 0, 1, 31.1,25.6) ">
<g transform="matrix( 0.64398193359375, 0, 0, 0.64398193359375, 0,0) ">
<use xlink:href="#Symbol_1_0_Layer0_0_FILL"/>
</g>

<g transform="matrix( 0.64398193359375, 0, 0, 0.64398193359375, 0,0) ">
<use xlink:href="#Symbol_1_0_Layer0_1_FILL"/>
</g>

<g transform="matrix( 0.64398193359375, 0, 0, 0.64398193359375, 0,0) ">
<use xlink:href="#Symbol_1_0_Layer0_2_FILL"/>
</g>

<g transform="matrix( 0.64398193359375, 0, 0, 0.64398193359375, 0,0) ">
<use xlink:href="#Symbol_1_0_Layer0_3_FILL"/>
</g>
</g>
</svg>
