<svg id="Layer_1" data-name="Layer 1" xmlns="http://www.w3.org/2000/svg" viewBox="0 0 559 880.91"><defs><style>.cls-1{fill:#d8dfe3;opacity:0.59;}.cls-2{fill:#2a2436;}.cls-3{fill:#52417a;}.cls-4{fill:#7160ff;}.cls-5{fill:#9f9fff;}</style></defs><ellipse class="cls-1" cx="279" cy="860.45" rx="113" ry="20.45"/><path class="cls-2" d="M637,1242.75H590.36c-16.39,0-28.79-21.71-27.72-47.5L581,751a18.93,18.93,0,0,1,18.61-18.28h28.07A19,19,0,0,1,646.33,751l18.38,444.22C665.78,1221,653.39,1242.75,637,1242.75Z" transform="translate(-334.68 -392.75)"/><path class="cls-3" d="M665.05,1195.25,646.67,751a19,19,0,0,0-18.62-18.28h-1.44v510h10.73C653.73,1242.75,666.12,1221,665.05,1195.25Z" transform="translate(-334.68 -392.75)"/><path class="cls-4" d="M893.61,751.75v-223c0-75.13-49.43-136-110.42-136H445.1c-61,0-110.42,60.91-110.42,136v223Z" transform="translate(-334.68 -392.75)"/><path class="cls-5" d="M893.68,751.75V502.29c0-60.5-35.57-109.54-79.44-109.54H777.11c-43.87,0-79.43,49-79.43,109.54V751.75Z" transform="translate(-334.68 -392.75)"/><rect class="cls-2" x="401.11" y="65.32" width="132" height="22.68" rx="11.34"/></svg>