<svg id="Layer_1" data-name="Layer 1" xmlns="http://www.w3.org/2000/svg" viewBox="0 0 105.83 106.5"><defs><style>.cls-1{fill:none;stroke:#fff;stroke-miterlimit:10;stroke-width:22px;}.cls-2{fill:#fff;}</style></defs><circle class="cls-1" cx="52.51" cy="53.27" r="29.9"/><polygon class="cls-2" points="64.22 23.38 40.85 23.38 44.22 0 60.85 0 64.22 23.38"/><polygon class="cls-2" points="82.46 64.98 82.46 41.61 105.83 44.99 105.83 61.61 82.46 64.98"/><polygon class="cls-2" points="40.85 83.12 64.22 83.12 60.85 106.5 44.22 106.5 40.85 83.12"/><polygon class="cls-2" points="23.38 41.61 23.38 64.98 0 61.61 0 44.99 23.38 41.61"/><polygon class="cls-2" points="20.07 67.81 36.6 84.34 17.68 98.48 5.92 86.73 20.07 67.81"/><polygon class="cls-2" points="68.77 84.34 85.3 67.81 99.44 86.73 87.69 98.48 68.77 84.34"/><polygon class="cls-2" points="85.3 36.88 68.77 20.35 87.69 6.2 99.44 17.96 85.3 36.88"/><polygon class="cls-2" points="36.6 21.2 20.07 37.73 5.92 18.82 17.68 7.06 36.6 21.2"/></svg>