<svg id="Layer_3" data-name="Layer 3" xmlns="http://www.w3.org/2000/svg" viewBox="0 0 854.58 800.43"><defs><style>.cls-1{fill:#ee78ac;}.cls-2{fill:#5a5ca6;}</style></defs><g id="Layer_2" data-name="Layer 2"><path class="cls-1" d="M78.4,903.9,68.46,893c-4.37-4.81-4.47-13.78.56-21.19l66.11-97.28c34.93-51.4,98.27-104.41,117.56-83.22l43.82,48.15c19.29,21.2-39.44,79.28-93.9,109.22L99.54,905.34C91.7,909.65,82.78,908.71,78.4,903.9Z" transform="translate(-65.21 -107.67)"/><path class="cls-2" d="M236.24,760.74,217.33,740c-24.14-26.53-30.89-61.06-14.62-77.6l518.69-527c38.13-38.73,102-36.86,141,5.95l30.53,33.54c39,42.8,34.81,106.58-7.33,140.89L312.12,782.59C294.13,797.24,260.39,787.27,236.24,760.74Z" transform="translate(-65.21 -107.67)"/></g></svg>