<svg id="Layer_3" data-name="Layer 3" xmlns="http://www.w3.org/2000/svg" viewBox="0 0 875.36 894.23"><defs><style>.cls-1{fill:#2b2436;}.cls-2{fill:#5a5ca6;}.cls-3,.cls-4{fill:#efefef;}.cls-4{stroke:#2b2436;stroke-miterlimit:10;stroke-width:21px;}</style></defs><path class="cls-1" d="M915.27,1148.26,784.08,328.09C777.43,286.47,737.21,254,694,254H261.17c-43.2,0-83.41,32.44-90.07,74.06L39.91,1148.26Z" transform="translate(-39.91 -254.03)"/><path class="cls-2" d="M538.53,1020.32c1,37.3-26.26,68.47-61,68.47s-62-31.17-61-68.47c1-36.07,28.29-64.46,61-64.46S537.53,984.25,538.53,1020.32Z" transform="translate(-39.91 -254.03)"/><path class="cls-3" d="M758.45,923.9H201.16c-38.52,0-64.49-32-58.22-70.24L227.8,336.94c3.38-20.61,28-36.91,55.17-36.91H675.33c27.12,0,51.82,16.3,55.25,36.91l85.95,516.72C822.88,891.86,797,923.9,758.45,923.9Z" transform="translate(-39.91 -254.03)"/><path class="cls-4" d="M301.44,393.23c-40.18,91.25-24.43,131-2.58,149.83,60.34,52,192.23-22.26,272.94,30.74,53.67,35.24,64.4,109.77,65.56,167.91" transform="translate(-39.91 -254.03)"/></svg>