<?xml version="1.0" encoding="UTF-8"?><svg id="a" xmlns="http://www.w3.org/2000/svg" viewBox="0 0 1215.24 1610.89"><defs><style>.c{fill:#2b2436;}.d{fill:#5a5ca6;}.e{stroke:#2b2436;stroke-miterlimit:10;stroke-width:21px;}.e,.f{fill:#efefef;}.g{fill:#ee78ac;}</style></defs><g><path class="c" d="M1210.72,1603.52l-131.19-820.17c-6.66-41.62-46.87-74.06-90.07-74.06h-432.84c-43.2,0-83.42,32.44-90.07,74.06l-131.19,820.17h875.36Z"/><path class="d" d="M833.98,1475.58c1.03,37.3-26.25,68.47-60.97,68.47s-62-31.17-60.97-68.47c1-36.08,28.28-64.47,60.97-64.47s59.97,28.39,60.97,64.47Z"/><path class="f" d="M1053.9,1379.15H496.61c-38.53,0-64.5-32.03-58.22-70.23l84.86-516.73c3.38-20.61,28.05-36.91,55.17-36.91h392.35c27.12,0,51.82,16.3,55.25,36.91l85.95,516.73c6.35,38.2-19.55,70.23-58.08,70.23Z"/><path class="e" d="M596.89,848.49c-40.18,91.25-24.43,131-2.58,149.83,60.34,52.02,192.23-22.27,272.94,30.73,53.66,35.24,64.39,109.77,65.55,167.92"/></g><g id="b"><path class="g" d="M373.85,1359.16l-9.94-10.92c-4.38-4.81-4.48-13.78,.56-21.18l66.11-97.28c34.93-51.4,98.27-104.42,117.56-83.22l43.82,48.15c19.29,21.2-39.44,79.27-93.9,109.22l-103.07,56.67c-7.85,4.31-16.77,3.37-21.14-1.44Z"/><path class="d" d="M531.7,1216l-18.92-20.79c-24.14-26.53-30.89-61.06-14.62-77.59L1016.85,590.6c38.12-38.74,102.01-36.86,140.96,5.94l30.52,33.54c38.95,42.8,34.82,106.58-7.33,140.9l-573.43,466.87c-17.99,14.65-51.74,4.68-75.88-21.85Z"/></g></svg>