<?xml version="1.0" encoding="UTF-8"?><svg id="a" xmlns="http://www.w3.org/2000/svg" viewBox="0 0 1215.24 1610.89"><defs><style>.d{fill:#2b2436;}.e{fill:#5a5ca6;}.f{fill:#ee78ac;}.g{fill:#efefef;}</style></defs><g id="b"><path class="d" d="M491.74,1591.92c2.24,2.95,4.34,5.86,6.34,8.75h582.47c1.27-5.26,2.96-11.08,5.21-17.61,20.3-58.89,55.88-65.46,72.08-109.25,37.37-101.01,10.7-196.47,0-234.74-11.38-40.71-36.89-131.99-106.87-181.59-50.9-36.07-76.46-15.47-277.13-13.29-96.6,1.05-133.37-3.26-210.02,8.86-115.06,18.19-148.8,46.34-167.77,76.77-16.31,26.17-19.79,57.17-26.1,118.11-11.42,110.47-20.71,200.26,22.37,262.8,32,46.45,55.17,23.08,99.42,81.2Z"/><path class="f" d="M659.19,893.55c-11.89,22.03,19.9,32.27,14.37,73.14-5.39,39.83-38.36,50.63-47.54,104.35-2.78,16.27-4.42,25.88,0,38.35,17.51,49.34,101.89,64.06,108.34,65.11,52.04,8.49,93.09-6.25,105.02-10.7,25.94-9.68,65.84-24.56,74.07-57.08,4.54-17.93-7.2-25.34-30.95-68.68-28.76-52.47-46.43-85.85-33.16-117.73,10.88-26.15,33.71-30.01,29.85-41.03-10.57-30.16-193.48-34.84-219.99,14.27Z"/><path class="f" d="M913.69,840.15c-11.26,101.19-91.03,164.9-178.13,152.38-85.87-12.33-160.58-96.23-168.76-197.21-9.19-113.5,67.35-206.94,173.71-195.1,108.25,12.05,185.88,125.79,173.17,239.92Z"/><path class="d" d="M585.61,629.93c-26.96,27.19-29.23,73.23-30.99,109.14-1.35,27.52-4.67,94.88,26.34,112.71,8.87,5.1,23.03,7.58,33.32,0,11.86-8.74,14.02-27.47,18.6-109.14,2.48-44.2,2.94-58.27,12.4-66.2,12.17-10.19,26.7,.7,49.59,5.37,66.52,13.56,98.01-45.74,130.94-24.15,19.8,12.98,26.13,46.05,35.64,95.72,8.34,43.58,5.06,68.71,20.92,79.62,11.79,8.1,31.77,6.7,40.29-5.37,16.37-23.19-26.66-61.51-18.6-123.45,4.71-36.16,21.9-42.43,20.92-76.93-.99-35.02-19.6-60.66-25.57-68.88-67.32-92.75-248.48-55.41-266.53,0-1.57,4.83-3.98,16.14-11.62,30.42-12.2,22.77-26.29,31.72-35.64,41.15Z"/></g><g id="c"><ellipse class="f" cx="635.25" cy="1470.33" rx="50.44" ry="98.38" transform="translate(-365.81 220.01) rotate(-15.32)"/><rect class="g" x="594.81" y="1196.16" width="377.11" height="255.69" rx="48.63" ry="48.63"/><ellipse class="f" cx="940.88" cy="1428.38" rx="50.44" ry="98.38"/><circle class="e" cx="905.43" cy="1247.1" r="30.96"/><circle class="d" cx="755.12" cy="1330.5" r="75.41"/></g></svg>