<?xml version="1.0" encoding="UTF-8"?><svg id="a" xmlns="http://www.w3.org/2000/svg" viewBox="0 0 879.88 1108.95"><defs><style>.d{fill:#fff;}.e{fill:#2b2436;}.f{fill:#5a5ca6;}.g{fill:#d8dfe2;opacity:.59;}.h{fill:#ee78ac;}.i{fill:#efefef;}</style></defs><g id="b"><ellipse class="g" cx="451.07" cy="857.95" rx="418.5" ry="19"/><path class="e" d="M442.82,855.13h-130.24c-48.68,0-38.84-87.38-8.51-137.41l53.82-88.82c2.39-3.94,8.98-6.53,15.69-6.53h8.24c6.71,0,13.3,2.59,15.69,6.53l53.82,88.82c30.32,50.04,40.16,137.41-8.51,137.41Z"/><rect class="e" x="32.57" y="84.95" width="837.29" height="649.49" rx="61.87" ry="61.87"/><path class="e" d="M851.37,939.64c30.65,39.7,30.83,101.4-13.55,121.83-45.76,21.07-93.92-21.47-102.49-72.98-6.1-36.64,10.73-67.64,35.78-77.67,24.64-9.86,58.16,.2,80.25,28.81Z"/><path class="e" d="M609.26,1108.95l-9.89-86.33c-5.69-49.7-31.89-85.67-62.39-85.67H117.18c-30.5,0-56.69,35.97-62.39,85.67l-9.89,86.33H609.26Z"/><rect class="i" x="75.03" y="125.88" width="752.75" height="539.75" rx="48.45" ry="48.45"/><rect class="d" x="128.65" y="173.41" width="212.3" height="340.41" rx="46.61" ry="46.61"/><rect class="d" x="384.87" y="173.41" width="387.99" height="254.39" rx="46.61" ry="46.61"/><rect class="f" x="132.31" y="539.43" width="640.55" height="105.23" rx="41.66" ry="41.66"/><rect class="h" x="154.28" y="208.18" width="161.05" height="21.96" rx="10.98" ry="10.98"/><rect class="f" x="154.28" y="286.88" width="133.6" height="21.96" rx="10.98" ry="10.98"/><rect class="f" x="154.28" y="396.68" width="106.15" height="21.96" rx="10.98" ry="10.98"/><rect class="f" x="154.28" y="325.31" width="80.53" height="21.96" rx="10.98" ry="10.98"/><rect class="h" x="387.62" y="454.33" width="385.24" height="59.48" rx="19.41" ry="19.41"/><path class="f" d="M623.17,316.29l-27.8,19.19c-21.17,14.61-64.09,31.32-64.09,15.38v-89.71c0-15.94,42.92,.77,64.09,15.38l27.8,19.19c1.54,1.07,2.58,3.27,2.58,5.11v10.35c0,1.84-1.04,4.04-2.58,5.11Z"/></g><g id="c"><rect class="e" x="235.39" y="508.26" width="63.02" height="25" rx="8.21" ry="8.21" transform="translate(-290.73 343.36) rotate(-45.22)"/><path class="e" d="M287.51,538.11l-37.48-37.2c-14.09-13.98,47.36-36.06,61.35-38.12l10.73-1.58c.71-.1,1.61,.29,2.18,.85l1.51,1.5c.57,.56,.96,1.47,.86,2.17l-1.5,10.74c-1.96,14.01-23.57,75.62-37.66,61.64Z"/></g></svg>