<svg id="Layer_1" data-name="Layer 1" xmlns="http://www.w3.org/2000/svg" viewBox="0 0 344.83 890.53"><defs><style>.cls-1{fill:#d8dfe3;opacity:0.59;}.cls-2{fill:#2a2436;}.cls-3{fill:#7160ff;}.cls-4{fill:#eeefef;}.cls-5{fill:#ff75b7;}</style></defs><ellipse class="cls-1" cx="168.5" cy="860.03" rx="168.5" ry="30.5"/><path class="cls-1" d="M1142.06,1159.34a63.84,63.84,0,0,1-26.8-6.94c-.19,6.73-.29,13.68-.29,20.79,0,61,7.33,110.5,16.38,110.5s16.38-49.47,16.38-110.5q0-7.28-.14-14.31A26.26,26.26,0,0,1,1142.06,1159.34Z" transform="translate(-803.47 -460.16)"/><path class="cls-2" d="M1148.3,1158.94l-22.83-19.25a23.11,23.11,0,0,0-13-6c-10.65-1.14-18,6-19,7a41.7,41.7,0,0,0,0,18,43.29,43.29,0,0,0,6,14c7,10.81,12.55,9.16,16,17,2.74,6.25-.58,7.74,1,22a73,73,0,0,0,4,18,65.24,65.24,0,0,0,11,19Z" transform="translate(-803.47 -460.16)"/><path class="cls-3" d="M970.28,1260.52a422,422,0,0,1-11.52-113.77c2.34-65.35,19.79-119.65,27.47-118.91,8.54.83-8.35,68.2,31,113.78,21.81,25.24,52.86,34.52,72.68,38.49l50.53-36.78c-10.08-12.38-23-31.65-29.25-57.32-8.78-36,2.19-57.59,1.77-93.24-.28-23.68-5.63-57.29-29.3-98.08H907.14A582.54,582.54,0,0,0,867.46,1003c-8.63,33.52-18.31,71.18-16.84,116.34,1,30.22,7.82,90.52,52.29,160Z" transform="translate(-803.47 -460.16)"/><path class="cls-2" d="M968,1293.84l-8.25-30.54-48.31,13a10.45,10.45,0,0,1-.13,4.17c-1.83,8-10.71,8.71-19.1,14.34-8.76,5.89-16,16.53-18,24.32Z" transform="translate(-803.47 -460.16)"/><path class="cls-2" d="M1121.69,674.3a100.76,100.76,0,0,0-29.22-21.61,60.85,60.85,0,0,0-6.32-2.63H947.67c-14.87,1.47-25.07,3.52-32.45,7.05-22,10.52-35.69,25.25-42.66,33.23-6.18,7.09-25.77,30.9-35.86,69.91-6.06,23.43-11.2,42.91-2.91,61.89,10.4,23.8,33.09,30.85,35.38,31.52,20.31,5.92,35.85-4.88,40.23,3.44,3,5.72-3.62,12.22-4.36,28.07a59.66,59.66,0,0,0,.6,9.52H1086.7c.85-23.3-1.81-47.23,12.7-57.08,8.59-5.83,16.09-2.66,22.73-6.45a32.47,32.47,0,0,0,4.41-3.86C1136.7,816.62,1172.38,728.84,1121.69,674.3Z" transform="translate(-803.47 -460.16)"/><path class="cls-4" d="M985.92,745.69H963a17.54,17.54,0,0,0-17.54,17.54v75.92A17.54,17.54,0,0,0,963,856.69h22.91a17.54,17.54,0,0,0,17.55-17.54V763.23A17.55,17.55,0,0,0,985.92,745.69Zm-26,28.1c-9.79,0-9.78-15.18,0-15.18S969.71,773.79,959.94,773.79Z" transform="translate(-803.47 -460.16)"/><ellipse class="cls-5" cx="942.47" cy="815.19" rx="12" ry="25.5" transform="translate(-954.28 -242.91) rotate(-12.18)"/><ellipse class="cls-5" cx="1003.47" cy="815.19" rx="25.5" ry="12" transform="translate(-757.57 1223.67) rotate(-81.3)"/><path class="cls-5" d="M959.66,613.87c6.63,3.64,10.12,2.68,12.36,6,4,5.86-2.31,16-4.12,19-3.93,6.49-7.29,8.13-9.21,10.85h76.92c-5.37-10.87-9.19-19.46-7.11-28.76,1.06-4.73,2.76-5.67,7.65-13.57,2-3.23,12-19.71,16.47-39.62,2.29-10.17,4.05-18,1.77-28.22-1.12-5-4-18-16.48-27.14-11.54-8.42-24.6-8.58-33-8.68a70.61,70.61,0,0,0-24.12,3.8c-3.57,1.28-23.44,8.44-31.77,26-4.47,9.45.44,9.11-2.35,35.82-1.88,17.89-4.82,25.08.58,33.1A40.08,40.08,0,0,0,959.66,613.87Z" transform="translate(-803.47 -460.16)"/><path class="cls-5" d="M1035.2,649.69H958.61a15.28,15.28,0,0,0-2.14,6.86c-.1,6.87,5.83,11.84,10.21,15.39,3.74,3,16.5,13.41,35.74,12.72,3.77-.14,18.88-1.09,29.9-11.38,3-2.77,9.11-8.5,8-15.39C1039.75,654.16,1037.27,651.49,1035.2,649.69Z" transform="translate(-803.47 -460.16)"/><path class="cls-2" d="M949.3,495.87c-2.57,4.5-10.89,20.29-5.39,35.59.79,2.18,3.13,7.3,7.65,10.28,20,13.16,59-33.32,75.37-21.92,5.89,4.09,2.39,11.12,11.25,40.34,5.64,18.58,8.46,27.87,12.55,28.16,8.82.61,15.1-38.25,22.35-83.1,2-12.37,3.16-21.6-2.21-28.11-10.13-12.27-35-4.51-38.29-3.44-27.47-17.84-57.33-17.54-72.49-1.88C957,475,951.22,482.21,949.3,495.87Z" transform="translate(-803.47 -460.16)"/></svg>