<svg id="Layer_1" data-name="Layer 1" xmlns="http://www.w3.org/2000/svg" viewBox="0 0 590.06 484.08"><defs><style>.cls-1{fill:none;stroke:#fff;stroke-miterlimit:10;stroke-width:21px;}</style></defs><g id="Layer_2" data-name="Layer 2"><path class="cls-1" d="M523.09,566.19H84.1a65,65,0,0,1-65-65V245a65,65,0,0,1,65-65h439a65,65,0,0,1,65,65V501.16A65,65,0,0,1,523.09,566.19Z" transform="translate(-8.56 -169.46)"/><polyline class="cls-1" points="584.38 72.32 118.85 72.32 15.31 72.32"/><line class="cls-1" x1="68.59" y1="42.5" x2="170.29" y2="42.5"/><path class="cls-1" d="M557.82,630.87l-8.58,7.38a19.87,19.87,0,0,1-28-2.12L433.47,530.22A103,103,0,1,1,476.74,506l83.2,96.84A19.85,19.85,0,0,1,557.82,630.87Z" transform="translate(-8.56 -169.46)"/></g></svg>