<svg id="Layer_1" data-name="Layer 1" xmlns="http://www.w3.org/2000/svg" viewBox="0 0 197.54 264.94"><defs><style>.cls-1{fill:#fff;}</style></defs><g id="Layer_2" data-name="Layer 2"><circle class="cls-1" cx="92.9" cy="243.06" r="21.88"/><path class="cls-1" d="M56.4,29.63c-7.87,12.88-7.72,28.05,0,37.92S77.76,80,88,77.66c20.34-4.69,21.09-27.79,40.44-35.39,9.1-3.58,23.53-4.21,46.63,9.55,8,15.76,5.17,22.29,1.31,25.35-10.49,8.34-35.67-3.28-59,3.31a39.79,39.79,0,0,0-25.07,19.78,211.84,211.84,0,0,0,2.06,47.13c4.45,28.68,7.92,48.67,27.25,59.11,8.35,4.5,21.13,8,29,5.27,9.3-3.24,7.49-13.65,6.24-41.08-.68-15.17-.82-27.33-.84-34.84,3.42.58,48.07,7.36,74.94-23.74,3.15-3.65,21.23-24.57,16.31-50.88C243.66,42,229.76,30.66,220.71,23.31,197.22,4.22,170.88,1.93,155,.56,123.29-2.19,99.86,6,94.59,7.94A133.93,133.93,0,0,0,56.4,29.63Z" transform="translate(-50.55)"/></g></svg>