<svg id="Layer_1" data-name="Layer 1" xmlns="http://www.w3.org/2000/svg" viewBox="0 0 266.43 263.54"><defs><style>.cls-1{fill:#fff;}</style></defs><path class="cls-1" d="M273.08,114.4,120,261.4c-5.62,5.4-16.13,3.55-23.5-4.11L83.29,243.52,67.76,248c-14.6,4.21-37.11-12.4-50.27-37.09L12,200.63c-3.75-7-1.85-14.15,4.26-15.91L86.84,164.4c6.09-1.76,14.07,2.52,17.82,9.55l1.44,2.69,84.79-81.43c-.47-.37-.92-.77-1.37-1.17l-8.76-7.75c-6.13-5.43-8.13-13.72-4.44-18.53L225.09,4.24C228.77-.55,236.74,0,242.87,5.39l8.76,7.74C273,32,282.3,57.63,272.52,70.38l-9.85,12.83,7.24,7.54C277.28,98.42,278.7,109,273.08,114.4Z" transform="translate(-10.09 -0.96)"/></svg>