<svg id="Layer_1" data-name="Layer 1" xmlns="http://www.w3.org/2000/svg" viewBox="0 0 288 240.57"><defs><style>.cls-1{fill:#fff;}</style></defs><path class="cls-1" d="M205.08,15.94c-33.29-10-62.52,1.71-96.49,15.35C72.26,45.88,29.08,63.21,9.9,108.05c-13.75,32.12-16.38,81.17,13.16,114,15.56,17.32,46.52,37.33,72.37,28.51,34-11.62,34.41-64.75,57-65.79,20.85-1,27.74,43.9,52.63,48.24,29.67,5.18,72.31-37,81.15-83.33C297.09,92.74,256.54,31.44,205.08,15.94ZM210.45,190c-33.68,0-33.62-52.24,0-52.24S244.07,190,210.45,190Z" transform="translate(0 -12.18)"/></svg>