<svg id="Layer_1" data-name="Layer 1" xmlns="http://www.w3.org/2000/svg" viewBox="0 0 257.57 264.94"><defs><style>.cls-1{fill:#fff;}</style></defs><path class="cls-1" d="M202.67,21.73H129.53l-1-10.56C127.94,4.36,122.46-.61,116.33.06L61.53,6.2c-6.12.67-10.6,6.77-10,13.62l1,10.92C30.33,43.84,15.22,69.81,15.22,99.67V187c0,43,31.4,77.94,70.11,77.94H202.67c38.71,0,70.11-34.91,70.11-77.94V99.67C272.78,56.64,241.38,21.73,202.67,21.73ZM112.51,226.79c-38.73,0-67.4-31.66-69.08-69.09s32.95-69.08,69.08-69.08c38.73,0,67.41,31.65,69.09,69.08S148.65,226.79,112.51,226.79ZM209.44,89.94H187.09c-7.17,0-13.23-6.74-13.23-14.71s6.09-14.7,13.23-14.7h22.35c7.17,0,13.22,6.73,13.22,14.7S216.61,89.94,209.44,89.94Z" transform="translate(-15.22)"/></svg>