
<svg xmlns="http://www.w3.org/2000/svg" version="1.1" xmlns:xlink="http://www.w3.org/1999/xlink" preserveAspectRatio="none" x="0px" y="0px" width="960px" height="640px" viewBox="0 0 960 640">
<defs>
<g id="Symbol_1_0_Layer0_0_FILL">
<path fill="#EE7AAD" stroke="none" d="
M 449.85 96
Q 449.5 73.95 437.6 58.4 425.85 43.05 409.2 42.15 392.55 41.25 379.2 55.25 365.65 69.4 362.95 91.3 359.9 115.9 371.6 134.95 383.45 154.25 403.05 155.35 422.65 156.4 436.5 138.5 450.25 120.8 449.85 96 Z"/>
</g>

<g id="Symbol_1_0_Layer0_1_FILL">
<path fill="#35303F" stroke="none" d="
M 358.55 119.15
Q 358.75 130.35 357.3 142.65 355.25 159.55 353.75 165.25 351.5 173.8 346.5 178.25 337.2 186.5 320.85 187.85 308.8 188.9 298.5 191.8 292 193.6 280.45 198.2 253.65 208.8 228.25 213.65 185.3 221.9 132.9 221.2 101 220.75 68.5 217.05
L 63.45 310.3
Q 152.05 326.15 218.3 311.85 231.25 309.05 246.2 304.4 254.65 301.75 269.95 296.75 296.45 288.4 316.3 288.85 325.15 289.05 335 287.2 348.55 284.6 357.65 278.85 362.8 275.6 368.8 268.45 374.9 261.2 383.4 255.75 386.85 253.55 391.75 251.05 395.95 248.95 399.85 246.2 407.05 241.1 410.65 237.75 416.95 231.95 420.6 225.2 424.45 218.15 425.15 209.5 425.25 199.05 425.45 192.95 426.45 167.05 440.65 140.4
L 358.55 119.15 Z"/>
</g>

<g id="Symbol_1_0_Layer0_2_MEMBER_0_FILL">
<path fill="#CECDCD" stroke="none" d="
M 465.9 0
L 400.65 30.85 435.7 239.8 492.75 260.25 465.9 0 Z"/>
</g>

<g id="Symbol_1_0_Layer0_2_MEMBER_1_FILL">
<path fill="#E7E7E7" stroke="none" d="
M 492.65 259.25
L 552.9 205.6 549.35 82.65 465.9 0 492.65 259.25 Z"/>
</g>

<g id="Symbol_1_0_Layer0_3_FILL">
<path fill="#F9B144" stroke="none" d="
M 520.85 76.85
Q 510 78 503.1 86.4 496.2 94.85 497.3 105.7
L 502.8 160.4
Q 503.95 171.25 512.35 178.15 520.8 185.05 531.65 183.95
L 553.2 181.75
Q 564.05 180.65 570.95 172.25 577.85 163.8 576.75 152.95
L 571.25 98.25
Q 570.15 87.4 561.7 80.5 553.25 73.6 542.4 74.7
L 520.85 76.85 Z"/>
</g>

<g id="Symbol_1_0_Layer0_4_FILL">
<path fill="#FF9900" stroke="none" d="
M 557.1 79.55
Q 550.65 80.2 547.45 93.95 544.25 107.7 546.15 126.55 548.05 145.35 553.95 158.2 559.85 171.05 566.25 170.4 572.65 169.75 575.85 156 579.1 142.25 577.2 123.4 575.3 104.6 569.4 91.75 563.5 78.9 557.1 79.55 Z"/>
</g>

<g id="Symbol_1_0_Layer0_5_FILL">
<path fill="#F2F2F2" stroke="none" d="
M 562.35 88.65
Q 560.6 88.45 558.55 90.5 568.55 103.2 572.05 119.15 568.75 89.35 562.35 88.65 Z"/>
</g>

<g id="Symbol_1_0_Layer0_6_FILL">
<path fill="#7C6BAD" stroke="none" d="
M 498.75 57.05
Q 499.9 57.7 500.9 56.8 501.9 55.85 501.8 54.25 501.75 52.9 500.75 52
L 482.6 36.55
Q 481.3 35.45 480.05 36.55 478.85 37.7 479.25 39.65
L 480.6 45.55
Q 480.95 46.85 481.9 47.45
L 498.75 57.05 Z"/>
</g>

<g id="Symbol_1_0_Layer0_7_FILL">
<path fill="#EE7AAD" stroke="none" d="
M 380.55 150.05
Q 372.55 165.75 370.05 182.7 367.6 199.15 370.7 214.2 373.85 229.4 382.1 240.55 390.75 252.25 403.7 257.75 416.7 263.25 431.1 261.35 444.85 259.55 457.95 251.3 470.95 243.05 481.1 229.9 491.6 216.35 497.35 199.65 507.85 169.25 499.25 142 490.75 115.1 468.35 105.6 457.4 100.95 444.9 101.8 432.7 102.65 420.7 108.65 395.15 121.4 380.55 150.05 Z"/>
</g>

<g id="Symbol_1_0_Layer0_8_FILL">
<path fill="#7C6BAD" stroke="none" d="
M 346.5 210.6
Q 336.9 229.55 331 238.05 322.65 250.05 312.95 255.4 304.45 260.15 291.55 259.2 274.5 257.9 239.9 246.95 196.3 233.2 153.05 213.35
L 49.95 178.25 0 306.05
Q 59.45 328.6 114.6 356.35 126.85 362.5 151.8 375.75 170.8 385.8 180 390 193.3 396.05 204.1 398.75 216.05 401.75 229.1 401.7 245.3 401.6 268.55 398.45 295 394.85 307.05 389.95 316.95 385.9 325.55 383.95 331.45 382.6 339.7 381.65 346.7 380.85 353.65 378.9 366.45 375.35 373.3 372.5 385.15 367.5 393.8 359.85 402.8 351.85 408.2 339.9 413.75 325.15 417.2 316.65 431.9 280.55 465.55 250.1
L 360.3 178.05
Q 354.4 194.8 346.5 210.6 Z"/>
</g>
</defs>

<g transform="matrix( 0.99615478515625, -0.0871429443359375, 0.0871429443359375, 0.99615478515625, 66.55,151.3) ">
<g transform="matrix( 1, 0, 0, 1, 0,0) ">
<use xlink:href="#Symbol_1_0_Layer0_0_FILL"/>
</g>

<g transform="matrix( 1, 0, 0, 1, 0,0) ">
<use xlink:href="#Symbol_1_0_Layer0_1_FILL"/>
</g>

<g transform="matrix( 1, 0, 0, 1, 0,0) ">
<use xlink:href="#Symbol_1_0_Layer0_2_MEMBER_0_FILL"/>
</g>

<g transform="matrix( 1, 0, 0, 1, 0,0) ">
<use xlink:href="#Symbol_1_0_Layer0_2_MEMBER_1_FILL"/>
</g>

<g transform="matrix( 1, 0, 0, 1, 0,0) ">
<use xlink:href="#Symbol_1_0_Layer0_3_FILL"/>
</g>

<g transform="matrix( 1, 0, 0, 1, 0,0) ">
<use xlink:href="#Symbol_1_0_Layer0_4_FILL"/>
</g>

<g transform="matrix( 1, 0, 0, 1, 0,0) ">
<use xlink:href="#Symbol_1_0_Layer0_5_FILL"/>
</g>

<g transform="matrix( 1, 0, 0, 1, 0,0) ">
<use xlink:href="#Symbol_1_0_Layer0_6_FILL"/>
</g>

<g transform="matrix( 1, 0, 0, 1, 0,0) ">
<use xlink:href="#Symbol_1_0_Layer0_7_FILL"/>
</g>

<g transform="matrix( 1, 0, 0, 1, 0,0) ">
<use xlink:href="#Symbol_1_0_Layer0_8_FILL"/>
</g>
</g>
</svg>
