
<svg xmlns="http://www.w3.org/2000/svg" version="1.1" xmlns:xlink="http://www.w3.org/1999/xlink" preserveAspectRatio="none" x="0px" y="0px" width="960px" height="640px" viewBox="0 0 960 640">
<defs>
<linearGradient id="Gradient_1" gradientUnits="userSpaceOnUse" x1="228.3875" y1="85.825" x2="225.0125" y2="-26.125" spreadMethod="pad">
<stop  offset="0%" stop-color="#383544" stop-opacity="0.3176470588235294"/>

<stop  offset="100%" stop-color="#1D1D1D" stop-opacity="0.13725490196078433"/>
</linearGradient>

<filter id="Filter_1" x="-20%" y="-20%" width="140%" height="140%" color-interpolation-filters="sRGB">
<feColorMatrix in="SourceGraphic" type="matrix" values="1 0 0 0 0 0 1 0 0 0 0 0 1 0 0 0 0 0 0.5 0" result="result1"/>
</filter>

<g id="Symbol_3_0_Layer0_0_MEMBER_0_FILL">
<path fill="#35303F" stroke="none" d="
M 266.95 257.15
Q 255.25 258.3 245.25 272.5 239.6 280.45 232.5 296.75 222.3 320 220.05 346.55 218.75 361.7 218.95 388.3 217.95 419.75 208.45 450.25 202 470.9 189.65 496.05 176.55 522.7 174.85 527.6 170.3 540.7 176.4 546.65 185.9 555.85 209.5 548.95 232.9 542.05 249.95 525.4 259 516.6 263.4 506.35 266.95 498.05 269.35 483.55 272.1 464.55 274.25 452.1 278.15 429.5 284.45 407.2 289.95 387.7 297.8 366.8 305.75 346.45 308.6 338.3 313.15 325.15 313.75 316.25 314.45 305.7 310.35 295 304.45 279.5 292.8 268.4 279.75 255.9 266.95 257.15 Z"/>
</g>

<g id="Symbol_3_0_Layer0_0_MEMBER_1_FILL">
<path fill="#EE7AAD" stroke="none" d="
M 233 530.15
Q 220.1 520.65 204.3 523 188.5 525.4 179.05 538.2 169.65 551.05 172.1 566.85 174.55 582.6 187.5 592.1 200.4 601.6 216.2 599.25 232 596.85 241.45 584.05 250.85 571.2 248.4 555.45 245.95 539.65 233 530.15 Z"/>
</g>

<g id="HomeHeaderArt_ai_Layer_1__Ellipse__1_0_Layer0_0_FILL">
<path fill="url(#Gradient_1)" stroke="none" d="
M 454.65 50.3
Q 454.65 40.05 436.8 30.7 419.55 21.7 388.05 14.75 321.5 0 227.35 0 133.15 0 66.6 14.75 35.15 21.7 17.85 30.7 0 40.05 0 50.3 0 60.55 17.85 69.9 35.1 78.9 66.6 85.9 133.15 100.6 227.35 100.6 321.5 100.6 388.05 85.9 419.55 78.9 436.8 69.9 454.65 60.55 454.65 50.3 Z"/>
</g>

<g id="Layer0_0_MEMBER_1_FILL">
<path fill="#EE7AAD" stroke="none" d="
M 283.1 663.3
L 265.35 663.3
Q 255 663.3 248.35 674.1 241.8 684.7 242.9 699.1
L 255.9 866.6
Q 256.25 871.1 260.3 874.2 264.3 877.3 269.65 877.3
L 278.75 877.3
Q 284.15 877.3 288.15 874.2 292.15 871.1 292.5 866.6
L 305.55 699.1
Q 306.65 684.7 300.1 674.1 293.45 663.3 283.1 663.3 Z"/>
</g>

<g id="Layer0_0_MEMBER_2_FILL">
<path fill="#EE7AAD" stroke="none" d="
M 361.5 661.5
Q 351.15 662.45 345.5 673.75 339.9 684.9 342.3 699.15
L 370.05 864.85
Q 370.8 869.3 375.1 872.05 379.35 874.75 384.7 874.3
L 393.75 873.5
Q 399.1 873 402.8 869.6 406.55 866.1 406.5 861.6
L 404.65 693.6
Q 404.5 679.15 397.05 669.15 389.5 659 379.15 659.95
L 361.5 661.5 Z"/>
</g>

<g id="Layer0_0_MEMBER_3_FILL">
<path fill="#7C6BAD" stroke="none" d="
M 259.8 501.7
Q 255.3 512.7 251.65 524.35 241.65 556.35 238.65 591.6 236.65 615.05 237.6 648.3 238 664.45 238.9 683.1 247.55 681.9 255.7 682.35
L 307.2 682.35
Q 310.8 661 315.05 647.55 319.2 634.5 321.95 634.85 325.2 635.25 327.95 647.3 329.6 654.45 334.2 682.35
L 420.6 682.35
Q 421.95 647.85 421.55 599.75 421.05 551.15 398.5 501.7
L 259.8 501.7 Z"/>
</g>

<g id="Layer0_0_MEMBER_4_FILL">
<path fill="#35303F" stroke="none" d="
M 445.65 308.3
Q 434.9 282.25 419.95 257.05
L 281.45 257.05
Q 252.7 284.8 243.65 317.3 239.6 332 239.65 348.55 239.7 358.9 242 380 244.55 403.4 245.05 416.8 245.9 440.2 243.2 464.1 241.5 479.05 238.85 492.15 238.5 493.55 238.85 494.75 239.8 498.1 245.6 499.85 251.25 501.6 259.65 501.3
L 398.65 501.3
Q 414.9 486.2 421.75 468.1 424.5 458.75 425.95 454.7 428.4 447.85 433.2 444.6 437.9 441.45 445.3 440.65 453.1 439.8 455.95 438.15 458.4 436.75 460.35 434.3 466.1 423.65 466.75 403.05 468 362.3 445.65 308.3 Z"/>
</g>

<g id="Layer0_0_MEMBER_5_FILL">
<path fill="#EE7AAD" stroke="none" d="
M 442 447.3
Q 432.9 445.9 424.75 455.85 416.6 465.8 414.25 481.25 411.9 496.7 416.65 508.6 421.45 520.55 430.6 521.95 439.75 523.35 447.9 513.4 456.05 503.45 458.4 488 460.75 472.55 455.95 460.65 451.15 448.75 442 447.3 Z"/>
</g>

<g id="Layer0_0_MEMBER_6_FILL">
<path fill="#EE7AAD" stroke="none" d="
M 388.2 146.5
Q 388.1 130.45 387.65 125.25 387 117.5 384.7 114.3 382.15 110.9 374.35 108.7 362.75 105.4 331.7 101.35 317.05 99.45 314.25 99.15 311.1 98.85 309.7 99.35 293.25 105.05 286.75 135.65 280.95 162.95 285.7 192.3 288.05 207 293.45 220.9 296.15 222.35 301.3 224 304.6 225.05 305.8 226.85 308.35 230.6 305.95 237.4 304.7 240.85 301.7 245.85 299.4 249.65 296.35 252.7 293 256 292.5 256.7
L 292.4 256.7
Q 291.1 258.85 290.55 261.4 290.3 262.7 290.25 263.55 290.25 268.1 293.7 272.5 295.6 274.9 297.9 276.95 299.45 278.3 300.5 278.95 304.4 281.45 308.85 290.05 310.95 294.1 316.55 307.05 321.3 318.1 324.25 322.85 328.65 329.9 332.7 330.3 336.15 330.65 339.3 325.8 341.15 322.95 345.4 313.35 355.35 290.75 366.15 280.3 369.95 276.5 371.45 274.35 374.85 269.35 374.15 264.9 373.45 260.6 369 256.7
L 369.45 256.7
Q 364.65 247 363.1 241.7 360.9 234.25 362.3 227.9 362.95 225 364.7 222.35 365.85 220.5 369.95 214.35 373.7 208.35 377.25 200.8 383.6 187.45 386.45 174.75 387.8 168.65 388.1 161.95 388.25 158.8 388.2 146.5 Z"/>
</g>

<g id="Layer0_0_MEMBER_7_FILL">
<path fill="#FF0000" stroke="none" d="
M 439.3 47.95
Q 432.55 34.15 421.7 32.5 411.05 30.9 400.75 41.35 389.6 52.75 387.9 70.55 382.4 62.5 373.9 55.7 358.05 43.05 340.2 42.9 332.1 42.9 326.05 44.4 314.5 47.2 306.75 55.2 297.65 64.6 295.35 80.65 291.3 87.8 289.3 95.15 285.9 107.85 289.65 118.2 290.95 121.75 293.55 124.85 294.55 126 297.75 129.1 308.15 138.95 324.15 142.5 340.5 146.1 355.15 141.3 361.9 139.1 373.6 131.85 381.65 126.85 384.2 128.8 386.6 130.6 386.05 136.85 384.9 149.4 379.95 163.65 377.35 171.3 373.1 181.45 362.9 209.4 379.45 238.55 379.85 238.5 379.65 234.15 379.3 227.05 379.35 222.5 379.55 202.35 385.8 184.65 388.3 177.25 391.35 171 396.8 159.8 400.6 160.35 404.45 160.9 406.25 174.7 407.35 183.25 408.25 204.8 409.15 226.85 410.1 234.85 411.75 248.6 415.35 249.1 418.7 249.55 423.6 239.25 426.3 233.55 430.15 222.7 438.2 200.05 437.55 180.4 437.05 165.3 431.3 151.05 427.6 141.95 419.7 129.1 411.9 116.55 410.15 111.95 406.9 103.55 410.1 96.95 412.3 92.4 417.05 89.45 419.7 87.85 426.35 85.25 432.5 82.9 435.4 80.85 439.9 77.7 441.8 72.65 445.9 61.6 439.3 47.95 Z"/>
</g>

<g id="Layer0_0_MEMBER_8_FILL">
<path fill="#35303F" stroke="none" d="
M 282.55 869.95
Q 276.25 858.2 267.25 856.55 261.35 855.45 254.15 860.05 250.15 862.55 243.15 867.7 206.75 888.25 183.65 924.4
L 224.85 926.95 269.7 887.85 294.65 934.3 294.65 856.3 282.55 869.95 Z"/>
</g>

<g id="Layer0_0_MEMBER_9_FILL">
<path fill="#35303F" stroke="none" d="
M 400.1 862.7
Q 393.4 853 385.8 852.7 380.85 852.5 375.7 857.6 372.85 860.4 367.95 865.9 341.6 889.05 328.2 924.45
L 361.9 921.25 392.35 880.4 419.4 918.55 407.9 848.85 400.1 862.7 Z"/>
</g>
</defs>

<g transform="matrix( 1, 0, 0, 1, 698.95,257.7) ">
<g transform="matrix( 0.3408966064453125, 0, 0, 0.3408966064453125, -58.5,-87.6) ">
<use xlink:href="#Symbol_3_0_Layer0_0_MEMBER_0_FILL"/>
</g>

<g transform="matrix( 0.3408966064453125, 0, 0, 0.3408966064453125, -58.5,-87.6) ">
<use xlink:href="#Symbol_3_0_Layer0_0_MEMBER_1_FILL"/>
</g>
</g>

<g transform="matrix( 0.449554443359375, 0, 0, 0.449554443359375, 641.65,539.25) ">
<g transform="matrix( 1, 0, 0, 1, 0,0) ">
<use filter="url(#Filter_1)" xlink:href="#HomeHeaderArt_ai_Layer_1__Ellipse__1_0_Layer0_0_FILL"/>
</g>
</g>

<g transform="matrix( 0.449554443359375, 0, 0, 0.449554443359375, 606.45,141.95) ">
<use xlink:href="#Layer0_0_MEMBER_1_FILL"/>
</g>

<g transform="matrix( 0.449554443359375, 0, 0, 0.449554443359375, 606.45,141.95) ">
<use xlink:href="#Layer0_0_MEMBER_2_FILL"/>
</g>

<g transform="matrix( 0.449554443359375, 0, 0, 0.449554443359375, 606.45,141.95) ">
<use xlink:href="#Layer0_0_MEMBER_3_FILL"/>
</g>

<g transform="matrix( 0.449554443359375, 0, 0, 0.449554443359375, 606.45,141.95) ">
<use xlink:href="#Layer0_0_MEMBER_4_FILL"/>
</g>

<g transform="matrix( 0.449554443359375, 0, 0, 0.449554443359375, 606.45,141.95) ">
<use xlink:href="#Layer0_0_MEMBER_5_FILL"/>
</g>

<g transform="matrix( 0.449554443359375, 0, 0, 0.449554443359375, 606.45,141.95) ">
<use xlink:href="#Layer0_0_MEMBER_6_FILL"/>
</g>

<g transform="matrix( 0.449554443359375, 0, 0, 0.449554443359375, 606.45,141.95) ">
<use xlink:href="#Layer0_0_MEMBER_7_FILL"/>
</g>

<g transform="matrix( 0.449554443359375, 0, 0, 0.449554443359375, 606.45,141.95) ">
<use xlink:href="#Layer0_0_MEMBER_8_FILL"/>
</g>

<g transform="matrix( 0.449554443359375, 0, 0, 0.449554443359375, 606.45,141.95) ">
<use xlink:href="#Layer0_0_MEMBER_9_FILL"/>
</g>
</svg>
