
<svg xmlns="http://www.w3.org/2000/svg" version="1.1" xmlns:xlink="http://www.w3.org/1999/xlink" preserveAspectRatio="none" x="0px" y="0px" width="960px" height="640px" viewBox="0 0 960 640">
<defs>
<g id="Symbol_1_0_Layer0_0_FILL">
<path fill="#EE79AD" stroke="none" d="
M 226.35 481.05
Q 214.25 467.65 194.6 456.9 174.4 445.85 149.35 439.4 103.65 427.65 62.2 435.25 42.75 438.85 28.4 446.35 13.7 454.05 6.4 464.9 -0.9 475.75 0.1 488.35 1.1 500.65 9.8 513 28.4 539.25 71.3 555.05 94.85 563.75 120.4 566.9 145.25 570 168.05 567.5 191.1 564.9 208.2 557.05 226.05 548.8 234.75 535.95 243.4 523.1 240.9 508.5 238.55 494.6 226.35 481.05 Z"/>
</g>

<g id="Symbol_1_0_Layer0_1_FILL">
<path fill="#E8E6E6" stroke="none" d="
M 72.1 334.95
L 58.25 339.5
Q 37.25 346.4 25.75 361.3 14.2 376.2 18.9 390.4
L 84.05 588.2
Q 88.7 602.35 106.85 607.5 125 612.65 145.95 605.75
L 159.85 601.15 72.1 334.95 Z"/>
</g>

<g id="Symbol_1_0_Layer0_2_FILL">
<path fill="#CECCCC" stroke="none" d="
M 62.7 523.45
L 84.1 588.3
Q 88.75 602.45 106.9 607.6 125 612.75 146 605.85
L 159.9 601.3 114.2 462.65 62.7 523.45 Z"/>
</g>

<g id="Symbol_1_0_Layer0_3_FILL">
<path fill="#F9B03D" stroke="none" d="
M 63.9 311.05
Q 57.5 318.55 58.15 326.4
L 63.4 390
Q 64.1 397.9 71.6 404.2 79.25 410.55 89.95 411.9
L 127.5 416.55 117 289.65 80.7 300.4
Q 70.4 303.5 63.9 311.05 Z"/>
</g>

<g id="Symbol_1_0_Layer0_4_FILL">
<path fill="#E98523" stroke="none" d="
M 98.6 309.9
Q 91.9 329.15 94.05 355.4 96.25 381.7 106 399.6 115.8 417.5 127.5 416.5 139.2 415.55 145.95 396.25 152.7 377 150.5 350.75 148.35 324.45 138.5 306.55 128.7 288.7 117 289.65 105.35 290.65 98.6 309.9 Z"/>
</g>

<g id="Symbol_1_0_Layer0_5_FILL">
<path fill="#F9B03D" stroke="none" d="
M 102.05 571.85
Q 102.55 580.8 107.95 585.6
L 151.45 624.2
Q 156.85 628.95 165.8 628.35 174.85 627.75 182.75 621.95
L 210.45 601.3 123.6 524.25 106.45 554.25
Q 101.55 562.75 102.05 571.85 Z"/>
</g>

<g id="Symbol_1_0_Layer0_6_FILL">
<path fill="#E98523" stroke="none" d="
M 209.85 576.35
Q 202.15 559.4 184.2 543.45 166.2 527.45 148.45 521.85 130.7 516.25 123.6 524.25 116.5 532.25 124.2 549.2 131.9 566.15 149.9 582.1 167.9 598.05 185.65 603.65 203.35 609.25 210.45 601.25 217.55 593.25 209.85 576.35 Z"/>
</g>

<g id="Symbol_1_0_Layer0_7_FILL">
<path fill="#7A68AC" stroke="none" d="
M 539.8 96.65
Q 540.55 81.6 538.75 70.9 536.5 57.7 529.7 45.25 511.85 12.6 483.7 3.45 467.8 -1.75 449.15 0.95 431.55 3.45 414.7 12.4 398.05 21.2 385.85 34.2 373.25 47.7 368.15 62.8 358.75 90.8 373.1 135.55 381.1 160.4 401.45 201.2 411.55 221.3 412.4 223.45 416.5 233.8 415.4 243.6 413.25 262.65 392.65 279.9 384.55 286.7 370.95 295.5 354.2 306 345.15 311.7 284.2 350.25 228.7 396.15
L 196.65 435.55 234.45 541.55
Q 266.8 533.05 297.45 519.7 327.3 506.6 354.9 488.4 382.2 470.4 417.05 440.85 461.6 403.15 479.25 387.5 507.8 362.3 524.1 344.85 542.65 324.95 551.9 308.45 561.6 291.1 563.05 274 564.25 259.75 561.05 248.25 559.35 242.15 552.8 228.15 546.35 214.25 543.25 202.95 538.45 185.3 537.3 162 536.5 145.35 537.75 125.85 539.4 105.6 539.8 96.65 Z"/>
</g>

<g id="Symbol_1_0_Layer0_8_FILL">
<path fill="#2B2436" stroke="none" d="
M 187.8 427.15
Q 182.15 430.15 180.3 436.25 178.4 442.35 181.4 447.95
L 229.35 538.95
Q 232.3 544.6 238.4 546.5 244.5 548.35 250.15 545.4 255.8 542.45 257.65 536.35 259.55 530.25 256.55 524.6
L 208.6 433.6
Q 205.65 427.95 199.55 426.1 193.45 424.2 187.8 427.15 Z"/>
</g>

<g id="Symbol_1_0_Layer0_9_FILL">
<path fill="#EE79AD" stroke="none" d="
M 226.4 488.85
Q 232.45 481.5 230.65 473.15 228.9 465.2 220.3 457.4 202.25 441.05 166.15 433.3 134.1 426.4 105.05 430.6 76.4 434.75 66 447.4 60.9 453.6 61.65 460.85 62.4 467.9 68.55 475 81.65 490.05 111.85 499.25 145.8 509.6 179.75 506.65 214.15 503.7 226.4 488.85 Z"/>
</g>
</defs>

<g transform="matrix( 0.2181243896484375, 0.97589111328125, -0.97589111328125, 0.2181243896484375, 657.15,78.3) ">
<g transform="matrix( 0.709991455078125, 0, 0, 0.709991455078125, 0.05,0) ">
<use xlink:href="#Symbol_1_0_Layer0_0_FILL"/>
</g>

<g transform="matrix( 0.709991455078125, 0, 0, 0.709991455078125, 0.05,0) ">
<use xlink:href="#Symbol_1_0_Layer0_1_FILL"/>
</g>

<g transform="matrix( 0.709991455078125, 0, 0, 0.709991455078125, 0.05,0) ">
<use xlink:href="#Symbol_1_0_Layer0_2_FILL"/>
</g>

<g transform="matrix( 0.709991455078125, 0, 0, 0.709991455078125, 0.05,0) ">
<use xlink:href="#Symbol_1_0_Layer0_3_FILL"/>
</g>

<g transform="matrix( 0.709991455078125, 0, 0, 0.709991455078125, 0.05,0) ">
<use xlink:href="#Symbol_1_0_Layer0_4_FILL"/>
</g>

<g transform="matrix( 0.709991455078125, 0, 0, 0.709991455078125, 0.05,0) ">
<use xlink:href="#Symbol_1_0_Layer0_5_FILL"/>
</g>

<g transform="matrix( 0.709991455078125, 0, 0, 0.709991455078125, 0.05,0) ">
<use xlink:href="#Symbol_1_0_Layer0_6_FILL"/>
</g>

<g transform="matrix( 0.709991455078125, 0, 0, 0.709991455078125, 0.05,0) ">
<use xlink:href="#Symbol_1_0_Layer0_7_FILL"/>
</g>

<g transform="matrix( 0.709991455078125, 0, 0, 0.709991455078125, 0.05,0) ">
<use xlink:href="#Symbol_1_0_Layer0_8_FILL"/>
</g>

<g transform="matrix( 0.709991455078125, 0, 0, 0.709991455078125, 0.05,0) ">
<use xlink:href="#Symbol_1_0_Layer0_9_FILL"/>
</g>
</g>
</svg>
