<svg id="Layer_1" data-name="Layer 1" xmlns="http://www.w3.org/2000/svg" viewBox="0 0 816.69 1098.72"><defs><style>.cls-1{fill:#2b2436;}.cls-2{fill:#ee78ac;}</style></defs><g id="Layer_8" data-name="Layer 8"><path class="cls-1" d="M196.29,1136.66c2.25,2.95,4.34,5.86,6.34,8.75H785.1c1.27-5.25,3-11.07,5.21-17.6,20.3-58.89,55.87-65.46,72.08-109.26,37.37-101,10.69-196.47,0-234.74C851,743.1,825.5,651.82,755.51,602.22c-50.9-36.08-76.46-15.47-277.12-13.29-96.61,1.05-133.37-3.26-210,8.86C153.31,616,119.57,644.13,100.6,674.56c-16.31,26.16-19.79,57.17-26.09,118.11C63.08,903.14,53.79,992.93,96.87,1055.46,128.88,1101.92,152,1078.55,196.29,1136.66Z" transform="translate(-64.94 -46.69)"/><path class="cls-2" d="M363.74,438.3c-11.89,22,19.9,32.26,14.37,73.13-5.38,39.84-38.35,50.64-47.53,104.35-2.78,16.28-4.43,25.89,0,38.36,17.5,49.34,101.88,64.05,108.33,65.1,52,8.49,93.1-6.25,105-10.7,26-9.68,65.84-24.56,74.07-57.08,4.54-17.93-7.2-25.34-31-68.68-28.77-52.47-46.43-85.85-33.17-117.73,10.88-26.14,33.71-30,29.85-41C573.16,393.86,390.25,389.18,363.74,438.3Z" transform="translate(-64.94 -46.69)"/><path class="cls-2" d="M618.24,384.89c-11.27,101.19-91,164.9-178.13,152.39C354.24,524.94,279.53,441,271.35,340.07,262.17,226.57,338.7,133.13,445.06,145,553.32,157,630.94,270.76,618.24,384.89Z" transform="translate(-64.94 -46.69)"/><path class="cls-1" d="M290.16,174.67c-27,27.2-29.23,73.23-31,109.14-1.35,27.52-4.66,94.88,26.35,112.71,8.86,5.1,23,7.58,33.31,0,11.86-8.73,14-27.47,18.6-109.13,2.48-44.2,2.94-58.27,12.4-66.2,12.16-10.19,26.69.7,49.58,5.37,66.52,13.56,98-45.75,131-24.16,19.8,13,26.13,46,35.64,95.72,8.34,43.58,5.06,68.72,20.92,79.62,11.78,8.1,31.76,6.7,40.29-5.37,16.37-23.19-26.67-61.51-18.6-123.45,4.71-36.16,21.9-42.43,20.92-76.93-1-35-19.6-60.67-25.57-68.88-67.32-92.76-248.48-55.42-266.53,0-1.57,4.83-4,16.14-11.62,30.41C313.6,156.29,299.51,165.24,290.16,174.67Z" transform="translate(-64.94 -46.69)"/></g></svg>