<svg id="Layer_6" data-name="Layer 6" xmlns="http://www.w3.org/2000/svg" viewBox="0 0 840.39 1024"><defs><style>.cls-1{fill:#d8dfe2;opacity:0.59;}.cls-2{fill:#2b2436;}.cls-3{fill:#efefef;}.cls-4{fill:#fff;}.cls-5{fill:#5a5ca6;}.cls-6{fill:#ee78ac;}</style></defs><g id="Layer_5" data-name="Layer 5"><ellipse class="cls-1" cx="418.5" cy="773" rx="418.5" ry="19"/><path class="cls-2" d="M482.73,901.82H352.49c-48.68,0-38.84-87.37-8.51-137.41l53.82-88.82c2.39-3.94,9-6.53,15.69-6.53h8.24c6.71,0,13.3,2.59,15.69,6.53l53.82,88.82C521.57,814.45,531.41,901.82,482.73,901.82Z" transform="translate(-72.48 -131.64)"/><rect class="cls-2" width="837.29" height="649.49" rx="61.87"/><path class="cls-2" d="M891.28,986.33c30.66,39.7,30.84,101.39-13.54,121.83-45.76,21.07-93.92-21.47-102.49-73-6.1-36.64,10.73-67.64,35.78-77.67C835.67,947.65,869.19,957.71,891.28,986.33Z" transform="translate(-72.48 -131.64)"/><path class="cls-2" d="M649.17,1155.64l-9.89-86.34c-5.7-49.7-31.89-85.66-62.39-85.66H157.09c-30.5,0-56.69,36-62.39,85.66l-9.89,86.34Z" transform="translate(-72.48 -131.64)"/><rect class="cls-3" x="42.46" y="40.93" width="752.75" height="539.75" rx="48.45"/><rect class="cls-4" x="96.08" y="88.46" width="212.3" height="340.41" rx="46.61"/><rect class="cls-4" x="352.3" y="88.46" width="387.99" height="254.39" rx="46.61"/><rect class="cls-5" x="99.74" y="454.49" width="640.55" height="105.23" rx="41.66"/><rect class="cls-6" x="121.7" y="123.23" width="161.05" height="21.96" rx="10.98"/><rect class="cls-5" x="121.7" y="201.93" width="133.6" height="21.96" rx="10.98"/><rect class="cls-5" x="121.7" y="311.74" width="106.15" height="21.96" rx="10.98"/><rect class="cls-5" x="121.7" y="240.36" width="80.53" height="21.96" rx="10.98"/><rect class="cls-6" x="355.05" y="369.39" width="385.24" height="59.48" rx="19.41"/></g></svg>