
<svg xmlns="http://www.w3.org/2000/svg" version="1.1" xmlns:xlink="http://www.w3.org/1999/xlink" preserveAspectRatio="none" x="0px" y="0px" width="960px" height="640px" viewBox="0 0 960 640">
<defs>
<g id="Symbol_2_0_Layer0_0_MEMBER_0_FILL">
<path fill="#2B2436" stroke="none" d="
M 63.45 321.2
Q 63.2 321.6 63.35 322.05
L 76.9 366.2
Q 77.15 367 78.05 366.9 79 366.75 78.9 365.8
L 75.75 319.75
Q 75.7 319.25 75.35 319 74.95 318.7 74.5 318.8
L 64.15 320.7
Q 63.7 320.8 63.45 321.2 Z"/>
</g>

<g id="Symbol_2_0_Layer0_0_MEMBER_1_FILL">
<path fill="#CECCCC" stroke="none" d="
M 71.75 274.95
L 61.65 276.8 71.1 327.8 71.3 327.8
Q 73.6 327 76.5 330.5
L 77.7 331.7 71.75 274.95 Z"/>
</g>

<g id="Symbol_2_0_Layer0_0_MEMBER_2_FILL">
<path fill="#E8E6E6" stroke="none" d="
M 61.65 276.8
L 51.55 278.7 66.45 334.3
Q 68.1 328.5 71.1 327.85
L 61.65 276.8 Z"/>
</g>

<g id="Symbol_2_0_Layer0_0_MEMBER_3_FILL">
<path fill="#CECCCC" stroke="none" d="
M 72.05 276.95
L 68.3 256.75 58.25 258.65 62 278.85 72.05 276.95 Z"/>
</g>

<g id="Symbol_2_0_Layer0_0_MEMBER_4_FILL">
<path fill="#E8E6E6" stroke="none" d="
M 62 278.85
L 58.25 258.6 48.2 260.5 51.95 280.7 62 278.85 Z"/>
</g>

<g id="Symbol_2_0_Layer0_0_MEMBER_5_FILL">
<path fill="#E98523" stroke="none" d="
M 22.05 63.3
Q 21.65 61.1 20.35 59.7 19 58.35 17.55 58.6
L 11.95 59.65
Q 10.5 59.9 9.75 61.7 9 63.45 9.4 65.65
L 50.25 285.75
Q 50.65 287.95 51.95 289.35 53.3 290.7 54.75 290.45 55.9 290.25 56.6 289.15 57.35 288 57.4 286.3 57.7 279.9 58 273.4 58.6 260.4 58.55 260
L 22.05 63.3 Z"/>
</g>

<g id="Symbol_2_0_Layer0_0_MEMBER_6_FILL">
<path fill="#F9B03D" stroke="none" d="
M 34.7 61
Q 34.3 58.75 32.95 57.35 31.65 56 30.2 56.25
L 24.6 57.3
Q 23.15 57.55 22.4 59.35 21.65 61.1 22.05 63.3
L 58.55 260
Q 58.7 260.9 59.1 261.8
L 69.05 284.15
Q 69.75 285.7 70.8 286.5 71.9 287.3 73 287.1 74.45 286.85 75.15 285.05 75.9 283.3 75.5 281.05
L 34.7 61 Z"/>
</g>

<g id="Symbol_2_0_Layer0_0_MEMBER_7_FILL">
<path fill="#EE79AD" stroke="none" d="
M 23.95 7.5
Q 23.35 4.15 21.75 1.95 20.2 -0.25 18.6 0.05
L 2.6 3
Q 1.05 3.3 0.35 5.9 -0.35 8.5 0.25 11.9
L 8.15 54.5 31.85 50.1 23.95 7.5 Z"/>
</g>

<g id="Symbol_2_0_Layer0_0_MEMBER_8_FILL">
<path fill="#2B2436" stroke="none" d="
M 29.05 65.65
Q 32.45 65 34.4 62.15 36.35 59.3 35.7 55.9 35.1 52.5 32.25 50.55 29.4 48.6 26 49.25
L 13.35 51.6
Q 9.95 52.2 8 55.05 6.05 57.9 6.7 61.3 7.35 64.7 10.2 66.65 13 68.6 16.4 67.95
L 29.05 65.65 Z"/>
</g>

<g id="Symbol_1_0_Layer0_0_MEMBER_0_FILL">
<path fill="#7A68AC" stroke="none" d="
M 435.7 259.25
Q 431.85 242.45 423.25 232.2 416.3 223.9 402.3 215.95 384.05 206.45 372.75 200 352.25 188.4 334.5 173.9 319.4 161.6 308.05 148.65 301.7 141.45 289.25 124.85 276.9 108.35 267.2 97.3 251.8 79.85 230.8 60.9 216.65 48.15 203.3 38.9 181.45 23.7 157.25 14 148.1 10.3 142.5 8.45 133.15 5.3 123.85 3.55 93.05 -2.25 63.05 1.1 20.1 5.95 6.4 30.1 -7.85 55.3 8.95 101.05 15.9 119.9 27.2 139.45 37.6 157.35 49.35 171.9 62.2 187.85 81.4 199.95 105 214.85 162.15 240.75 222.9 268.2 272.8 286.7 303.15 297.9 338.8 308.9 367.45 317.75 376.15 321.65 390.1 327.9 401.1 339.2 407.3 345.45 411.05 347.8 418.9 352.6 424.5 348.7
L 424.45 348.7
Q 434.3 341.8 437.8 312.65 441.3 283.9 435.7 259.25 Z"/>
</g>

<g id="Symbol_1_0_Layer0_0_MEMBER_1_FILL">
<path fill="#EE79AD" stroke="none" d="
M 423.85 230.4
Q 419.3 224.7 405.8 222.95 393.4 221.4 381.65 223.9 368.7 226.65 355.75 235.5 343.65 243.75 334.4 255.35 325.2 266.8 321.5 278 317.65 289.85 321.05 298.15
L 321 298.15
Q 323.35 303.75 329.95 309 334.1 312.3 344.15 318.25 355 324.7 360.15 328.5 369.05 335.1 374.55 342.4 379.85 349.4 383 356.35 384.55 359.8 387.5 368.45 393.05 384.65 404.05 399.2 410.1 407.25 421.15 418.15 428.8 425.65 433.55 435.25 436.7 441.6 441.45 452.65 445.9 461.1 452.65 464.2 457 466.2 461.4 466.35 466.5 466.6 468.75 464.1 472.8 459.85 461.95 435.8 454.75 419.85 448.75 410.5 443.15 401.8 442.3 399.75 436.1 385 434.6 367.95 440.75 374.6 454.8 388.9 464.55 398.75 470.4 406.25 480.8 419.65 487.65 434.95 489.2 438.45 491.65 445.75 494.2 453.35 495.7 456.85 501.1 469.65 510.55 475.15 519.6 480.25 522.45 477.55 524.8 475.35 522.4 467.3 521.6 464.6 515.55 448.8
L 512.15 439.6 512.75 439.75
Q 515.45 440.15 517.95 437.45 520.45 434.75 521 430.75 521.45 427.6 520.2 423.45 518.3 418.1 517.15 414.5 515.25 408.5 513.85 398.05 512.9 391.25 510.85 370.55 509.2 354.65 509 353.3 508.25 348.2 506.4 345.4 505 343.25 502.55 341.95 498.45 340.05 494.6 338.05 490.4 335.85 482.45 330.75 475.05 325.95 467.8 318.7 462.5 308.15 459.2 301.4 456.8 296.5 444.65 272.35 437.35 257.95 431.9 245.55 427.9 236.45 426.35 233.95 425.65 232.8 423.85 230.4 Z"/>
</g>
</defs>

<g transform="matrix( 0.999847412109375, -0.0174407958984375, 0.0174407958984375, 0.999847412109375, 496.3,234.55) ">
<g transform="matrix( 0.7099761962890625, 0, 0, 0.7099761962890625, 0,0) ">
<use xlink:href="#Symbol_2_0_Layer0_0_MEMBER_0_FILL"/>
</g>

<g transform="matrix( 0.7099761962890625, 0, 0, 0.7099761962890625, 0,0) ">
<use xlink:href="#Symbol_2_0_Layer0_0_MEMBER_1_FILL"/>
</g>

<g transform="matrix( 0.7099761962890625, 0, 0, 0.7099761962890625, 0,0) ">
<use xlink:href="#Symbol_2_0_Layer0_0_MEMBER_2_FILL"/>
</g>

<g transform="matrix( 0.7099761962890625, 0, 0, 0.7099761962890625, 0,0) ">
<use xlink:href="#Symbol_2_0_Layer0_0_MEMBER_3_FILL"/>
</g>

<g transform="matrix( 0.7099761962890625, 0, 0, 0.7099761962890625, 0,0) ">
<use xlink:href="#Symbol_2_0_Layer0_0_MEMBER_4_FILL"/>
</g>

<g transform="matrix( 0.7099761962890625, 0, 0, 0.7099761962890625, 0,0) ">
<use xlink:href="#Symbol_2_0_Layer0_0_MEMBER_5_FILL"/>
</g>

<g transform="matrix( 0.7099761962890625, 0, 0, 0.7099761962890625, 0,0) ">
<use xlink:href="#Symbol_2_0_Layer0_0_MEMBER_6_FILL"/>
</g>

<g transform="matrix( 0.7099761962890625, 0, 0, 0.7099761962890625, 0,0) ">
<use xlink:href="#Symbol_2_0_Layer0_0_MEMBER_7_FILL"/>
</g>

<g transform="matrix( 0.7099761962890625, 0, 0, 0.7099761962890625, 0,0) ">
<use xlink:href="#Symbol_2_0_Layer0_0_MEMBER_8_FILL"/>
</g>
</g>

<g transform="matrix( 0.9999542236328125, -0.0087127685546875, 0.0087127685546875, 0.9999542236328125, 200.3,112.75) ">
<g transform="matrix( 0.7099761962890625, 0, 0, 0.7099761962890625, 0.1,0.1) ">
<use xlink:href="#Symbol_1_0_Layer0_0_MEMBER_0_FILL"/>
</g>

<g transform="matrix( 0.7099761962890625, 0, 0, 0.7099761962890625, 0.1,0.1) ">
<use xlink:href="#Symbol_1_0_Layer0_0_MEMBER_1_FILL"/>
</g>
</g>
</svg>
