<svg id="Layer_1" data-name="Layer 1" xmlns="http://www.w3.org/2000/svg" viewBox="0 0 580.03 700.42"><defs><style>.cls-1,.cls-2{fill:none;stroke:#fff;stroke-miterlimit:10;}.cls-1{stroke-width:21px;}.cls-2{stroke-width:16px;}</style></defs><g id="Layer_4" data-name="Layer 4"><polygon class="cls-1" points="459.19 103.18 525.92 140.93 282.31 571.56 249.01 552.72 215.58 533.81 459.19 103.18"/><polygon class="cls-1" points="223.38 538.23 274.63 567.22 178.38 686.89 170.39 682.37 223.38 538.23"/><path class="cls-1" d="M561.17,62.2h0A33.88,33.88,0,0,1,574,108.37l-32,56.64c-9.22,16.28-68.18-17.08-59-33.36L515,75A33.87,33.87,0,0,1,561.17,62.2Z" transform="translate(-8.85 -47.3)"/><path class="cls-2" d="M102.75,102.65c-44.56,41.76-99.5,103-82.85,146.88,20.52,54,131,32,155.26,88.57,29.11,67.81-107.73,149.67-87.7,258.62,8.43,45.9,41.24,77.74,62.46,94.92" transform="translate(-8.85 -47.3)"/></g></svg>