<svg id="Layer_1" data-name="Layer 1" xmlns="http://www.w3.org/2000/svg" viewBox="0 0 414.97 265.75"><defs><style>.cls-1{fill:#efefef;}</style></defs><path class="cls-1" d="M431.56,348.85c-.89-2.31-20.48,6.58-54.26,11-18.27,2.41-27.58,3.54-36-.11-20.51-8.85-22.85-33.79-33.95-52.42-29.23-49.06-116-49.23-167.21-36.24-31.29,7.95-85.72,21.77-110.87,77.81C11.16,389.22,11,445.1,38.46,484.18c42.72,60.87,127,45,158.15,39.08,42.46-8,110.84-35.37,121-76,1.43-5.73,4.39-22.53,17.14-36.77,9-10.12,18.7-14.11,25.74-17.24C399.13,376.05,432.76,352,431.56,348.85Z" transform="translate(-16.62 -263.83)"/></svg>